<svg width="136" height="125" viewBox="0 0 136 125" fill="none" xmlns="http://www.w3.org/2000/svg">
<path d="M46.5 86C46.5 86.8284 47.1716 87.5 48 87.5C48.8284 87.5 49.5 86.8284 49.5 86L46.5 86ZM49.0607 14.9393C48.4749 14.3536 47.5251 14.3536 46.9393 14.9393L37.3934 24.4853C36.8076 25.0711 36.8076 26.0208 37.3934 26.6066C37.9792 27.1924 38.9289 27.1924 39.5147 26.6066L48 18.1213L56.4853 26.6066C57.0711 27.1924 58.0208 27.1924 58.6066 26.6066C59.1924 26.0208 59.1924 25.0711 58.6066 24.4853L49.0607 14.9393ZM49.5 86L49.5 16L46.5 16L46.5 86L49.5 86Z" fill="white"/>
<path d="M48 84.5C47.1716 84.5 46.5 85.1716 46.5 86C46.5 86.8284 47.1716 87.5 48 87.5V84.5ZM119.061 87.0607C119.646 86.4749 119.646 85.5251 119.061 84.9393L109.515 75.3934C108.929 74.8076 107.979 74.8076 107.393 75.3934C106.808 75.9792 106.808 76.9289 107.393 77.5147L115.879 86L107.393 94.4853C106.808 95.0711 106.808 96.0208 107.393 96.6066C107.979 97.1924 108.929 97.1924 109.515 96.6066L119.061 87.0607ZM48 87.5H118V84.5H48V87.5Z" fill="white"/>
<path d="M43.3957 0.0909088H44.9085L47.9341 5.18324H48.0619L51.0875 0.0909088H52.6003L48.6585 6.50426V11H47.3375V6.50426L43.3957 0.0909088Z" fill="white"/>
<path d="M128.148 80.0909L130.961 84.6293H131.046L133.858 80.0909H135.414L131.983 85.5455L135.414 91H133.858L131.046 86.5469H130.961L128.148 91H126.593L130.108 85.5455L126.593 80.0909H128.148Z" fill="white"/>
<path d="M48.5 121.5C47.6716 121.5 47 122.172 47 123C47 123.828 47.6716 124.5 48.5 124.5V121.5ZM10.9393 87.5607C11.5251 88.1464 12.4749 88.1464 13.0607 87.5607L22.6066 78.0147C23.1924 77.4289 23.1924 76.4792 22.6066 75.8934C22.0208 75.3076 21.0711 75.3076 20.4853 75.8934L12 84.3787L3.51472 75.8934C2.92893 75.3076 1.97918 75.3076 1.3934 75.8934C0.807612 76.4792 0.807612 77.4289 1.3934 78.0147L10.9393 87.5607ZM83.5 86.5C83.5 105.83 67.83 121.5 48.5 121.5V124.5C69.4868 124.5 86.5 107.487 86.5 86.5H83.5ZM13.5 86.5C13.5 67.17 29.17 51.5 48.5 51.5V48.5C27.5132 48.5 10.5 65.5132 10.5 86.5H13.5ZM48.5 51.5C67.83 51.5 83.5 67.17 83.5 86.5H86.5C86.5 65.5132 69.4868 48.5 48.5 48.5V51.5Z" fill="white"/>
</svg>
